<svg width="5" height="8" viewBox="0 0 5 8" fill="currentColor"  xmlns="http://www.w3.org/2000/svg">
<path d="M3.80093 3.42015L0.966973 0.580286C0.860278 0.473386 0.687151 0.473222 0.580278 0.57989C0.473378 0.686558 0.4732 0.859685 0.579868 0.966585L3.41403 3.80666C3.52064 3.91327 3.52064 4.08674 3.41383 4.19356L0.579868 7.03342C0.4732 7.14032 0.473378 7.31345 0.580278 7.42012C0.633639 7.47338 0.703543 7.5 0.77342 7.5C0.843489 7.5 0.913557 7.47323 0.966973 7.41971L3.80073 4.58005C4.12057 4.26021 4.12057 3.73979 3.80093 3.42015Z" fill="#0085FF"/>
<path fill-rule="evenodd" clip-rule="evenodd" d="M0.227102 0.225952C0.529456 -0.0757725 1.01913 -0.0752346 1.32086 0.227073L4.15448 3.0666C4.66946 3.58158 4.66929 4.41858 4.15427 4.9336L1.32089 7.77289C1.16992 7.92417 0.970855 8 0.773413 8C0.576602 8 0.378012 7.92466 0.227102 7.77405M0.227102 0.225952C-0.0752528 0.527699 -0.0757543 1.01742 0.225923 1.31975L2.9006 4L0.225939 6.68024C-0.0757302 6.98256 -0.0752306 7.4723 0.227102 7.77405M3.06047 4.16021C3.06059 4.16033 3.06035 4.16009 3.06047 4.16021V4.16021Z" fill="#0085FF"/>
</svg>
