<svg width="25" height="25" viewBox="0 0 25 25" fill="none" xmlns="http://www.w3.org/2000/svg">
<path d="M25 21.6667C25 23.5076 23.5076 25 21.6667 25L3.33333 25C1.49238 25 7.26515e-07 23.5076 8.87456e-07 21.6667L2.49021e-06 3.33333C2.65115e-06 1.49238 1.49239 -1.45905e-06 3.33334 -1.29811e-06L21.6667 3.04637e-07C23.5076 4.65578e-07 25 1.49238 25 3.33333L25 21.6667Z" fill="#FAD3D3"/>
<path fill-rule="evenodd" clip-rule="evenodd" d="M18.3925 12.786L13.0892 18.0893C12.7638 18.4147 12.2362 18.4147 11.9107 18.0893L6.60744 12.786C6.282 12.4605 6.282 11.9329 6.60744 11.6074C6.93287 11.282 7.46051 11.282 7.78595 11.6074L11.6667 15.4882L11.6667 6.66667L13.3333 6.66667L13.3333 15.4882L17.214 11.6074C17.5395 11.282 18.0671 11.282 18.3925 11.6074C18.718 11.9329 18.718 12.4605 18.3925 12.786Z" fill="#FF9393"/>
</svg>
