<svg width="25" height="25" viewBox="0 0 25 25" fill="none" xmlns="http://www.w3.org/2000/svg">
<path d="M0 3.33333C0 1.49238 1.49238 0 3.33333 0H21.6667C23.5076 0 25 1.49238 25 3.33333V21.6667C25 23.5076 23.5076 25 21.6667 25H3.33333C1.49238 25 0 23.5076 0 21.6667V3.33333Z" fill="#E3F5DE"/>
<path fill-rule="evenodd" clip-rule="evenodd" d="M6.60745 12.214L11.9108 6.91074C12.2362 6.5853 12.7638 6.5853 13.0893 6.91074L18.3926 12.214C18.718 12.5395 18.718 13.0671 18.3926 13.3926C18.0671 13.718 17.5395 13.718 17.2141 13.3926L13.3333 9.51184L13.3333 18.3333L11.6667 18.3333L11.6667 9.51184L7.78596 13.3926C7.46052 13.718 6.93289 13.718 6.60745 13.3926C6.28201 13.0671 6.28201 12.5395 6.60745 12.214Z" fill="#7DE463"/>
</svg>
