<svg width="96" height="36" viewBox="0 0 96 36" fill="none" xmlns="http://www.w3.org/2000/svg">
<g opacity="0.5">
<path d="M32.0052 1.91555L31.7747 30.2639C30.31 30.6939 28.7533 30.9195 27.1408 30.9064C18.62 30.8371 11.7666 24.1305 11.8333 15.9267C11.9 7.72298 18.8615 1.12865 27.3822 1.19791C28.9948 1.21101 30.5476 1.46184 32.0052 1.91555Z" fill="url(#paint0_linear)"/>
<path opacity="0.7" d="M20.2926 1.91555L20.0622 30.2639C18.5974 30.6939 17.0407 30.9195 15.4282 30.9064C6.90742 30.8371 0.054045 24.1305 0.120723 15.9267C0.187402 7.72298 7.14888 1.12865 15.6696 1.19791C17.2822 1.21101 18.835 1.46184 20.2926 1.91555Z" fill="url(#paint1_linear)"/>
<path d="M42 7.97051C42 6.70943 42.2832 5.58303 42.8497 4.59131C43.4284 3.58734 44.2103 2.80988 45.1954 2.25892C46.1929 1.69572 47.3073 1.41412 48.5387 1.41412C49.9794 1.41412 51.2415 1.78143 52.3252 2.51604C53.4088 3.25065 54.1661 4.26686 54.5971 5.56466H51.6233C51.3277 4.95249 50.9091 4.49336 50.3673 4.18727C49.8378 3.88119 49.2221 3.72814 48.5202 3.72814C47.769 3.72814 47.0979 3.90567 46.5069 4.26073C45.9281 4.60355 45.4725 5.09329 45.14 5.72995C44.8199 6.36661 44.6598 7.11347 44.6598 7.97051C44.6598 8.81531 44.8199 9.56216 45.14 10.2111C45.4725 10.8477 45.9281 11.3436 46.5069 11.6987C47.0979 12.0415 47.769 12.2129 48.5202 12.2129C49.2221 12.2129 49.8378 12.0598 50.3673 11.7537C50.9091 11.4354 51.3277 10.9702 51.6233 10.358H54.5971C54.1661 11.668 53.4088 12.6904 52.3252 13.425C51.2539 14.1473 49.9917 14.5085 48.5387 14.5085C47.3073 14.5085 46.1929 14.2331 45.1954 13.6821C44.2103 13.1189 43.4284 12.3414 42.8497 11.3497C42.2832 10.358 42 9.23159 42 7.97051Z" fill="white"/>
<path d="M59.3917 0.808071V14.3983H56.8058V0.808071H59.3917Z" fill="white"/>
<path d="M63.258 3.0119C62.8024 3.0119 62.4206 2.8711 62.1128 2.5895C61.8173 2.29565 61.6695 1.93447 61.6695 1.50595C61.6695 1.07743 61.8173 0.722365 62.1128 0.440765C62.4206 0.146922 62.8024 0 63.258 0C63.7136 0 64.0892 0.146922 64.3847 0.440765C64.6925 0.722365 64.8465 1.07743 64.8465 1.50595C64.8465 1.93447 64.6925 2.29565 64.3847 2.5895C64.0892 2.8711 63.7136 3.0119 63.258 3.0119ZM64.5325 4.224V14.3983H61.9466V4.224H64.5325Z" fill="white"/>
<path d="M76.5998 9.09079C76.5998 9.45809 76.5752 9.78867 76.5259 10.0825H69.0452C69.1068 10.8171 69.3654 11.3926 69.821 11.8088C70.2766 12.2251 70.8369 12.4333 71.5019 12.4333C72.4623 12.4333 73.1458 12.0231 73.5521 11.2028H76.3412C76.0457 12.1823 75.4792 12.9903 74.6419 13.627C73.8045 14.2514 72.7763 14.5636 71.5573 14.5636C70.5722 14.5636 69.6856 14.3494 68.8975 13.9208C68.1217 13.4801 67.5122 12.8618 67.0689 12.066C66.6379 11.2701 66.4224 10.3519 66.4224 9.31117C66.4224 8.25823 66.6379 7.33385 67.0689 6.53802C67.4999 5.7422 68.1032 5.13002 68.879 4.7015C69.6548 4.27298 70.5475 4.05872 71.5573 4.05872C72.5301 4.05872 73.3982 4.26686 74.1616 4.68313C74.9374 5.09941 75.5346 5.69322 75.9533 6.46456C76.3843 7.22366 76.5998 8.09907 76.5998 9.09079ZM73.9215 8.35618C73.9092 7.69503 73.6691 7.16856 73.2012 6.77677C72.7332 6.37274 72.1606 6.17072 71.4834 6.17072C70.8431 6.17072 70.3013 6.36661 69.858 6.75841C69.427 7.13795 69.1622 7.67054 69.0637 8.35618H73.9215Z" fill="white"/>
<path d="M84.1578 4.07708C85.3769 4.07708 86.362 4.46275 87.1131 5.23409C87.8643 5.99319 88.2398 7.05837 88.2398 8.42964V14.3983H85.6539V8.77858C85.6539 7.97051 85.4507 7.35221 85.0444 6.92369C84.638 6.48293 84.0839 6.26254 83.382 6.26254C82.6678 6.26254 82.1014 6.48293 81.6827 6.92369C81.2763 7.35221 81.0732 7.97051 81.0732 8.77858V14.3983H78.4873V4.224H81.0732V5.4912C81.418 5.05044 81.8551 4.70762 82.3846 4.46275C82.9264 4.20564 83.5175 4.07708 84.1578 4.07708Z" fill="white"/>
<path d="M93.7096 6.336V11.2579C93.7096 11.6007 93.7897 11.8517 93.9497 12.0109C94.1221 12.1578 94.4054 12.2312 94.7994 12.2312H96V14.3983H94.3746C92.195 14.3983 91.1052 13.3454 91.1052 11.2395V6.336H89.8862V4.224H91.1052V1.70797H93.7096V4.224H96V6.336H93.7096Z" fill="white"/>
<path d="M45.2139 28.9477H49.4622V30.9863H42.628V18.1674H45.2139V28.9477Z" fill="white"/>
<path d="M55.6496 31.1516C54.6645 31.1516 53.7779 30.9373 52.9898 30.5088C52.2017 30.068 51.5799 29.4497 51.1243 28.6539C50.681 27.8581 50.4593 26.9398 50.4593 25.8991C50.4593 24.8584 50.6871 23.9402 51.1427 23.1443C51.6107 22.3485 52.2448 21.7363 53.0452 21.3078C53.8456 20.867 54.7384 20.6467 55.7235 20.6467C56.7086 20.6467 57.6013 20.867 58.4018 21.3078C59.2022 21.7363 59.8302 22.3485 60.2858 23.1443C60.7537 23.9402 60.9877 24.8584 60.9877 25.8991C60.9877 26.9398 60.7475 27.8581 60.2673 28.6539C59.7994 29.4497 59.1591 30.068 58.3463 30.5088C57.5459 30.9373 56.647 31.1516 55.6496 31.1516ZM55.6496 28.911C56.1175 28.911 56.5547 28.8008 56.961 28.5804C57.3797 28.3478 57.7122 28.005 57.9585 27.552C58.2047 27.099 58.3279 26.548 58.3279 25.8991C58.3279 24.9319 58.0693 24.1912 57.5521 23.6769C57.0472 23.1505 56.4254 22.8872 55.6865 22.8872C54.9477 22.8872 54.3259 23.1505 53.821 23.6769C53.3284 24.1912 53.0822 24.9319 53.0822 25.8991C53.0822 26.8664 53.3223 27.6132 53.8025 28.1397C54.2951 28.6539 54.9108 28.911 55.6496 28.911Z" fill="white"/>
<path d="M66.8927 20.6467C67.6561 20.6467 68.3272 20.7997 68.906 21.1058C69.4847 21.3996 69.9404 21.7853 70.2728 22.2628V20.812H72.8772V31.0598C72.8772 32.0025 72.6863 32.8412 72.3046 33.5758C71.9229 34.3226 71.3503 34.9103 70.5868 35.3389C69.8234 35.7796 68.8998 36 67.8162 36C66.3632 36 65.1687 35.6633 64.2329 34.9899C63.3093 34.3165 62.786 33.3983 62.6629 32.2351H65.2303C65.3658 32.7004 65.6551 33.0677 66.0984 33.337C66.554 33.6186 67.102 33.7594 67.7423 33.7594C68.4935 33.7594 69.103 33.5329 69.5709 33.0799C70.0389 32.6392 70.2728 31.9658 70.2728 31.0598V29.4803C69.9404 29.9578 69.4786 30.3558 68.8875 30.6741C68.3088 30.9924 67.6438 31.1516 66.8927 31.1516C66.0307 31.1516 65.2426 30.9312 64.5284 30.4904C63.8142 30.0497 63.2478 29.4314 62.8291 28.6355C62.4228 27.8275 62.2196 26.9031 62.2196 25.8624C62.2196 24.8339 62.4228 23.9218 62.8291 23.126C63.2478 22.3301 63.8081 21.718 64.5099 21.2894C65.2241 20.8609 66.0184 20.6467 66.8927 20.6467ZM70.2728 25.8991C70.2728 25.2747 70.1497 24.7421 69.9034 24.3013C69.6571 23.8483 69.3247 23.5055 68.906 23.2729C68.4873 23.028 68.0379 22.9056 67.5576 22.9056C67.0774 22.9056 66.6341 23.0219 66.2277 23.2545C65.8214 23.4872 65.4889 23.83 65.2303 24.283C64.984 24.7237 64.8609 25.2502 64.8609 25.8624C64.8609 26.4746 64.984 27.0133 65.2303 27.4785C65.4889 27.9315 65.8214 28.2805 66.2277 28.5254C66.6464 28.7702 67.0897 28.8927 67.5576 28.8927C68.0379 28.8927 68.4873 28.7763 68.906 28.5437C69.3247 28.2988 69.6571 27.956 69.9034 27.5153C70.1497 27.0623 70.2728 26.5235 70.2728 25.8991Z" fill="white"/>
<path d="M79.9466 31.1516C78.9615 31.1516 78.0749 30.9373 77.2868 30.5088C76.4987 30.068 75.8769 29.4497 75.4213 28.6539C74.978 27.8581 74.7563 26.9398 74.7563 25.8991C74.7563 24.8584 74.9841 23.9402 75.4397 23.1443C75.9077 22.3485 76.5418 21.7363 77.3422 21.3078C78.1426 20.867 79.0354 20.6467 80.0205 20.6467C81.0056 20.6467 81.8983 20.867 82.6987 21.3078C83.4991 21.7363 84.1271 22.3485 84.5828 23.1443C85.0507 23.9402 85.2846 24.8584 85.2846 25.8991C85.2846 26.9398 85.0445 27.8581 84.5643 28.6539C84.0964 29.4497 83.456 30.068 82.6433 30.5088C81.8429 30.9373 80.944 31.1516 79.9466 31.1516ZM79.9466 28.911C80.4145 28.911 80.8517 28.8008 81.258 28.5804C81.6767 28.3478 82.0092 28.005 82.2554 27.552C82.5017 27.099 82.6249 26.548 82.6249 25.8991C82.6249 24.9319 82.3663 24.1912 81.8491 23.6769C81.3442 23.1505 80.7224 22.8872 79.9835 22.8872C79.2447 22.8872 78.6229 23.1505 78.118 23.6769C77.6254 24.1912 77.3792 24.9319 77.3792 25.8991C77.3792 26.8664 77.6193 27.6132 78.0995 28.1397C78.5921 28.6539 79.2078 28.911 79.9466 28.911Z" fill="white"/>
</g>
<defs>
<linearGradient id="paint0_linear" x1="21.9824" y1="1.15402" x2="21.7409" y2="30.8625" gradientUnits="userSpaceOnUse">
<stop stop-color="#CCE7FF"/>
<stop offset="1" stop-color="#43A5FF"/>
</linearGradient>
<linearGradient id="paint1_linear" x1="10.2698" y1="1.15402" x2="10.0283" y2="30.8625" gradientUnits="userSpaceOnUse">
<stop stop-color="#CCE7FF"/>
<stop offset="1" stop-color="#43A5FF"/>
</linearGradient>
</defs>
</svg>
