<svg fill="currentColor"  height="512pt" viewBox="-57 0 512 512" width="512pt" xmlns="http://www.w3.org/2000/svg"><path d="m378 0h-358c-11.046875 0-20 8.953125-20 20v472c0 11.046875 8.953125 20 20 20h358c11.046875 0 20-8.953125 20-20 0-21.453125 0-464.078125 0-472 0-11.046875-8.953125-20-20-20zm-20 472h-318v-346h318zm0-386h-318v-46h318zm-268.800781 213c0-11.046875 8.953125-20 20-20h119.601562c11.046875 0 20 8.953125 20 20s-8.953125 20-20 20h-119.601562c-11.046875 0-20-8.953125-20-20zm0 96.5c0-11.046875 8.953125-20 20-20h119.601562c11.046875 0 20 8.953125 20 20s-8.953125 20-20 20h-119.601562c-11.046875 0-20-8.953125-20-20zm179.601562-96.5c0-11.046875 8.953125-20 20-20s20 8.953125 20 20-8.953125 20-20 20-20-8.953125-20-20zm-179.601562-96.5c0-11.046875 8.953125-20 20-20h119.601562c11.046875 0 20 8.953125 20 20s-8.953125 20-20 20h-119.601562c-11.046875 0-20-8.953125-20-20zm179.601562 0c0-11.046875 8.953125-20 20-20s20 8.953125 20 20-8.953125 20-20 20-20-8.953125-20-20zm0 193c0-11.046875 8.953125-20 20-20s20 8.953125 20 20-8.953125 20-20 20-20-8.953125-20-20zm0 0"/></svg>