<svg fill="currentColor" height="512pt" viewBox="0 0 512 512" width="512pt" xmlns="http://www.w3.org/2000/svg"><path d="m256 0c-141.484375 0-256 114.496094-256 256 0 141.484375 114.496094 256 256 256 141.484375 0 256-114.496094 256-256 0-141.484375-114.496094-256-256-256zm130 428.53125v-132.53125c0-11.046875-8.953125-20-20-20s-20 8.953125-20 20v156.464844c-21.945312 10.066406-45.539062 16.382812-70 18.613281v-145.078125c0-11.046875-8.953125-20-20-20s-20 8.953125-20 20v145.078125c-24.460938-2.230469-48.054688-8.546875-70-18.613281v-126.464844c0-11.046875-8.953125-20-20-20s-20 8.953125-20 20v102.53125c-33.164062-25.09375-59.34375-59.667969-73.746094-100.5l52.03125-52.03125h151.714844c5.304688 0 10.390625-2.105469 14.144531-5.859375l75.855469-75.855469v31.714844c0 11.046875 8.953125 20 20 20s20-8.953125 20-20v-80c0-10.988281-9-20-20-20h-80c-11.046875 0-20 8.953125-20 20s8.953125 20 20 20h31.714844l-70 70h-151.714844c-5.304688 0-10.390625 2.105469-14.144531 5.859375l-40.292969 40.292969c-1.03125-8.613282-1.5625-17.34375-1.5625-26.152344 0-119.378906 96.605469-216 216-216 119.378906 0 216 96.605469 216 216 0 69.585938-32.65625 132.164062-86 172.53125zm0 0"/></svg>